<?xml version="1.0" encoding="UTF-8" standalone="no"?>
<!-- Created with Inkscape (http://www.inkscape.org/) -->

<svg
   xmlns:dc="http://purl.org/dc/elements/1.1/"
   xmlns:cc="http://creativecommons.org/ns#"
   xmlns:rdf="http://www.w3.org/1999/02/22-rdf-syntax-ns#"
   xmlns:svg="http://www.w3.org/2000/svg"
   xmlns="http://www.w3.org/2000/svg"
   xmlns:sodipodi="http://sodipodi.sourceforge.net/DTD/sodipodi-0.dtd"
   xmlns:inkscape="http://www.inkscape.org/namespaces/inkscape"
   width="500"
   height="500"
   viewBox="0 0 500.00001 500.00001"
   id="svg2"
   version="1.1"
   inkscape:version="0.91 r13725"
   sodipodi:docname="Q.svg">
  <defs
     id="defs4">
    <clipPath
       clipPathUnits="userSpaceOnUse"
       id="clipPath4152">
      <rect
         style="fill:none;stroke:#000000;stroke-width:1;stroke-linecap:square;stroke-linejoin:miter;stroke-miterlimit:4;stroke-dasharray:none;stroke-opacity:1"
         id="rect4154"
         width="500"
         height="500"
         x="0"
         y="552.36212" />
    </clipPath>
    <clipPath
       clipPathUnits="userSpaceOnUse"
       id="clipPath4219">
      <rect
         style="fill:none;fill-opacity:1;stroke:#000000;stroke-width:1;stroke-linecap:square;stroke-linejoin:miter;stroke-miterlimit:4;stroke-dasharray:none;stroke-opacity:1"
         id="rect4221"
         width="500"
         height="500"
         x="0"
         y="-2.841797e-005" />
    </clipPath>
  </defs>
  <sodipodi:namedview
     id="base"
     pagecolor="#ffffff"
     bordercolor="#666666"
     borderopacity="1.0"
     inkscape:pageopacity="0.0"
     inkscape:pageshadow="2"
     inkscape:zoom="1"
     inkscape:cx="207.93385"
     inkscape:cy="208.21281"
     inkscape:document-units="px"
     inkscape:current-layer="layer1"
     showgrid="true"
     units="px"
     inkscape:window-width="1440"
     inkscape:window-height="900"
     inkscape:window-x="-8"
     inkscape:window-y="29"
     inkscape:window-maximized="1"
     showguides="true"
     inkscape:guide-bbox="true">
    <inkscape:grid
       type="xygrid"
       id="grid4136" />
    <sodipodi:guide
       position="395.00001,115"
       orientation="0,1"
       id="guide4241" />
  </sodipodi:namedview>
  <metadata
     id="metadata7">
    <rdf:RDF>
      <cc:Work
         rdf:about="">
        <dc:format>image/svg+xml</dc:format>
        <dc:type
           rdf:resource="http://purl.org/dc/dcmitype/StillImage" />
        <dc:title />
      </cc:Work>
    </rdf:RDF>
  </metadata>
  <g
     inkscape:label="レイヤー 1"
     inkscape:groupmode="layer"
     id="layer1"
     transform="translate(0,-552.36215)">
    <g
       id="layer1-1"
       inkscape:label="レイヤー 1"
       transform="translate(0,-5e-5)">
      <path
         style="fill:none;fill-opacity:1;stroke:#000000;stroke-width:20;stroke-linecap:square;stroke-linejoin:miter;stroke-miterlimit:4;stroke-dasharray:none;stroke-opacity:1"
         d="M 253.50391,10.025391 C 188.64384,9.0787003 126.16261,34.426844 80.294922,80.294922 -7.1298231,167.72013 -13.832285,307.25611 64.810547,402.6582 143.45403,498.06072 281.70621,518.10644 384.20703,448.96875 L 395.05078,438.125 430,473.07617 430,490 c 30,0 30,0 60,0 0,-30 0,-29.51213 0,-60 l -18.22266,0 -34.30078,-34.30078 11.49219,-11.49219 C 518.10644,281.70621 498.06072,143.45403 402.6582,64.810547 360.60303,30.142635 308.00041,10.821415 253.50391,10.025391 Z"
         transform="translate(0,552.3622)"
         id="path4141"
         inkscape:connector-curvature="0"
         sodipodi:nodetypes="csscccccccccsc" />
      <path
         style="fill:none;fill-opacity:1;stroke:#000000;stroke-width:20;stroke-linecap:square;stroke-linejoin:miter;stroke-miterlimit:4;stroke-dasharray:none;stroke-opacity:1"
         d="M 252.62891 70.019531 A 180 180 0 0 0 122.7207 122.7207 A 180 180 0 0 0 107.19727 359.57617 A 180 180 0 0 0 340 405.88477 L 351.55469 394.33203 L 296.47266 339.25 L 338.89844 296.82227 L 393.98047 351.9043 L 405.88477 340 A 180 180 0 0 0 359.57617 107.19727 A 180 180 0 0 0 252.62891 70.019531 z "
         transform="translate(0,552.3622)"
         id="path4145" />
      <path
         inkscape:connector-curvature="0"
         id="path4147"
         d="m 210,562.36215 80,0"
         style="fill:none;fill-rule:evenodd;stroke:#000000;stroke-width:20;stroke-linecap:butt;stroke-linejoin:miter;stroke-miterlimit:4;stroke-dasharray:none;stroke-opacity:1" />
      <path
         inkscape:connector-curvature="0"
         id="path4147-2"
         d="m 210,1042.3622 80,0"
         style="fill:none;fill-rule:evenodd;stroke:#000000;stroke-width:20;stroke-linecap:butt;stroke-linejoin:miter;stroke-miterlimit:4;stroke-dasharray:none;stroke-opacity:1" />
      <path
         inkscape:connector-curvature="0"
         id="path4147-8"
         d="m 10,762.36215 0,80"
         style="fill:none;fill-rule:evenodd;stroke:#000000;stroke-width:20;stroke-linecap:butt;stroke-linejoin:miter;stroke-miterlimit:4;stroke-dasharray:none;stroke-opacity:1" />
      <path
         inkscape:connector-curvature="0"
         id="path4147-5"
         d="m 490,762.36215 0,80"
         style="fill:none;fill-rule:evenodd;stroke:#000000;stroke-width:20;stroke-linecap:butt;stroke-linejoin:miter;stroke-miterlimit:4;stroke-dasharray:none;stroke-opacity:1" />
    </g>
  </g>
</svg>
